<mxfile host="app.diagrams.net" modified="2021-05-12T17:22:17.109Z" agent="5.0 (Macintosh; Intel Mac OS X 10_15_7) AppleWebKit/537.36 (KHTML, like Gecko) Chrome/90.0.4430.93 Safari/537.36" etag="E9qBYF3gpf9A_SVuPWy3" version="14.6.11" type="github">
  <diagram id="IwOv3YlZUVAsn_aweAkh" name="Request &amp; Response">
    <mxGraphModel dx="992" dy="654" grid="1" gridSize="10" guides="1" tooltips="1" connect="1" arrows="1" fold="1" page="1" pageScale="1" pageWidth="1169" pageHeight="827" math="0" shadow="0">
      <root>
        <mxCell id="0" />
        <mxCell id="1" parent="0" />
        <mxCell id="Hkld1g8VxO6-5qJbLP5S-1" value="" style="shape=image;html=1;verticalAlign=top;verticalLabelPosition=bottom;labelBackgroundColor=#ffffff;imageAspect=0;aspect=fixed;image=https://cdn1.iconfinder.com/data/icons/logotypes/32/chrome-128.png;fontColor=#000000;align=left;" parent="1" vertex="1">
          <mxGeometry x="390" y="289" width="20" height="20" as="geometry" />
        </mxCell>
        <mxCell id="Hkld1g8VxO6-5qJbLP5S-5" value="request HTML" style="edgeStyle=orthogonalEdgeStyle;rounded=0;orthogonalLoop=1;jettySize=auto;html=1;fontColor=#000000;" parent="1" source="Hkld1g8VxO6-5qJbLP5S-2" target="Hkld1g8VxO6-5qJbLP5S-4" edge="1">
          <mxGeometry relative="1" as="geometry" />
        </mxCell>
        <mxCell id="Hkld1g8VxO6-5qJbLP5S-2" value="" style="pointerEvents=1;shadow=0;dashed=0;html=1;strokeColor=none;fillColor=#434445;aspect=fixed;labelPosition=center;verticalLabelPosition=bottom;verticalAlign=top;align=center;outlineConnect=0;shape=mxgraph.vvd.web_browser;labelBackgroundColor=#ffffff;fontColor=#000000;" parent="1" vertex="1">
          <mxGeometry x="420" y="269" width="84.51" height="60" as="geometry" />
        </mxCell>
        <mxCell id="Hkld1g8VxO6-5qJbLP5S-8" style="edgeStyle=orthogonalEdgeStyle;rounded=0;orthogonalLoop=1;jettySize=auto;html=1;fontColor=#000000;" parent="1" source="Hkld1g8VxO6-5qJbLP5S-4" target="Hkld1g8VxO6-5qJbLP5S-7" edge="1">
          <mxGeometry relative="1" as="geometry">
            <mxPoint x="540" y="399" as="targetPoint" />
            <Array as="points">
              <mxPoint x="664" y="379" />
            </Array>
          </mxGeometry>
        </mxCell>
        <mxCell id="Hkld1g8VxO6-5qJbLP5S-9" value="response HTML" style="edgeLabel;html=1;align=center;verticalAlign=middle;resizable=0;points=[];fontColor=#000000;" parent="Hkld1g8VxO6-5qJbLP5S-8" vertex="1" connectable="0">
          <mxGeometry x="0.3151" y="1" relative="1" as="geometry">
            <mxPoint as="offset" />
          </mxGeometry>
        </mxCell>
        <mxCell id="Hkld1g8VxO6-5qJbLP5S-4" value="" style="points=[];aspect=fixed;html=1;align=center;shadow=0;dashed=0;image;image=img/lib/allied_telesis/computer_and_terminals/Server_Desktop.svg;labelBackgroundColor=#ffffff;fontColor=#000000;" parent="1" vertex="1">
          <mxGeometry x="640" y="269" width="47.33" height="60" as="geometry" />
        </mxCell>
        <mxCell id="Hkld1g8VxO6-5qJbLP5S-6" value="" style="shape=image;html=1;verticalAlign=top;verticalLabelPosition=bottom;labelBackgroundColor=#ffffff;imageAspect=0;aspect=fixed;image=https://cdn1.iconfinder.com/data/icons/logotypes/32/chrome-128.png;fontColor=#000000;align=left;" parent="1" vertex="1">
          <mxGeometry x="390" y="369" width="20" height="20" as="geometry" />
        </mxCell>
        <mxCell id="Hkld1g8VxO6-5qJbLP5S-13" value="request CSS" style="edgeStyle=orthogonalEdgeStyle;rounded=0;orthogonalLoop=1;jettySize=auto;html=1;fontColor=#000000;" parent="1" source="Hkld1g8VxO6-5qJbLP5S-7" target="Hkld1g8VxO6-5qJbLP5S-12" edge="1">
          <mxGeometry x="0.3852" relative="1" as="geometry">
            <Array as="points">
              <mxPoint x="462" y="429" />
            </Array>
            <mxPoint as="offset" />
          </mxGeometry>
        </mxCell>
        <mxCell id="Hkld1g8VxO6-5qJbLP5S-7" value="" style="pointerEvents=1;shadow=0;dashed=0;html=1;strokeColor=none;fillColor=#434445;aspect=fixed;labelPosition=center;verticalLabelPosition=bottom;verticalAlign=top;align=center;outlineConnect=0;shape=mxgraph.vvd.web_browser;labelBackgroundColor=#ffffff;fontColor=#000000;" parent="1" vertex="1">
          <mxGeometry x="420" y="349" width="84.51" height="60" as="geometry" />
        </mxCell>
        <mxCell id="Hkld1g8VxO6-5qJbLP5S-10" value="" style="shape=image;html=1;verticalAlign=top;verticalLabelPosition=bottom;labelBackgroundColor=#ffffff;imageAspect=0;aspect=fixed;image=https://cdn4.iconfinder.com/data/icons/file-extension-names-vol-5-1/512/38-128.png;fontColor=#000000;align=left;" parent="1" vertex="1">
          <mxGeometry x="560" y="329" width="40" height="40" as="geometry" />
        </mxCell>
        <mxCell id="Hkld1g8VxO6-5qJbLP5S-16" style="edgeStyle=orthogonalEdgeStyle;rounded=0;orthogonalLoop=1;jettySize=auto;html=1;fontColor=#000000;" parent="1" source="Hkld1g8VxO6-5qJbLP5S-12" target="Hkld1g8VxO6-5qJbLP5S-15" edge="1">
          <mxGeometry relative="1" as="geometry">
            <Array as="points">
              <mxPoint x="664" y="499" />
            </Array>
          </mxGeometry>
        </mxCell>
        <mxCell id="Hkld1g8VxO6-5qJbLP5S-20" value="response CSS" style="edgeLabel;html=1;align=center;verticalAlign=middle;resizable=0;points=[];fontColor=#000000;" parent="Hkld1g8VxO6-5qJbLP5S-16" vertex="1" connectable="0">
          <mxGeometry x="0.3386" y="3" relative="1" as="geometry">
            <mxPoint x="10" as="offset" />
          </mxGeometry>
        </mxCell>
        <mxCell id="Hkld1g8VxO6-5qJbLP5S-12" value="" style="points=[];aspect=fixed;html=1;align=center;shadow=0;dashed=0;image;image=img/lib/allied_telesis/computer_and_terminals/Server_Desktop.svg;labelBackgroundColor=#ffffff;fontColor=#000000;" parent="1" vertex="1">
          <mxGeometry x="640" y="399" width="47.33" height="60" as="geometry" />
        </mxCell>
        <mxCell id="Hkld1g8VxO6-5qJbLP5S-14" value="" style="shape=image;html=1;verticalAlign=top;verticalLabelPosition=bottom;labelBackgroundColor=#ffffff;imageAspect=0;aspect=fixed;image=https://cdn1.iconfinder.com/data/icons/logotypes/32/chrome-128.png;fontColor=#000000;align=left;" parent="1" vertex="1">
          <mxGeometry x="390" y="479" width="20" height="20" as="geometry" />
        </mxCell>
        <mxCell id="Hkld1g8VxO6-5qJbLP5S-15" value="" style="pointerEvents=1;shadow=0;dashed=0;html=1;strokeColor=none;fillColor=#434445;aspect=fixed;labelPosition=center;verticalLabelPosition=bottom;verticalAlign=top;align=center;outlineConnect=0;shape=mxgraph.vvd.web_browser;labelBackgroundColor=#ffffff;fontColor=#000000;" parent="1" vertex="1">
          <mxGeometry x="420" y="459" width="84.51" height="60" as="geometry" />
        </mxCell>
        <mxCell id="Hkld1g8VxO6-5qJbLP5S-17" value="" style="shape=image;html=1;verticalAlign=top;verticalLabelPosition=bottom;labelBackgroundColor=#ffffff;imageAspect=0;aspect=fixed;image=https://cdn1.iconfinder.com/data/icons/hawcons/32/700035-icon-77-document-file-css-128.png;fontColor=#000000;align=right;" parent="1" vertex="1">
          <mxGeometry x="560" y="454" width="40" height="40" as="geometry" />
        </mxCell>
        <mxCell id="Hkld1g8VxO6-5qJbLP5S-19" value="" style="shape=image;html=1;verticalAlign=top;verticalLabelPosition=bottom;labelBackgroundColor=#ffffff;imageAspect=0;aspect=fixed;image=https://cdn4.iconfinder.com/data/icons/file-extension-names-vol-8/512/27-128.png;fontColor=#000000;align=right;" parent="1" vertex="1">
          <mxGeometry x="560" y="579" width="40" height="40" as="geometry" />
        </mxCell>
        <mxCell id="Hkld1g8VxO6-5qJbLP5S-27" value="request JavsScript" style="edgeStyle=orthogonalEdgeStyle;rounded=0;orthogonalLoop=1;jettySize=auto;html=1;fontColor=#000000;" parent="1" source="Hkld1g8VxO6-5qJbLP5S-15" target="Hkld1g8VxO6-5qJbLP5S-30" edge="1">
          <mxGeometry x="0.3852" relative="1" as="geometry">
            <mxPoint x="440" y="619" as="sourcePoint" />
            <Array as="points">
              <mxPoint x="462" y="549" />
            </Array>
            <mxPoint as="offset" />
          </mxGeometry>
        </mxCell>
        <mxCell id="Hkld1g8VxO6-5qJbLP5S-28" style="edgeStyle=orthogonalEdgeStyle;rounded=0;orthogonalLoop=1;jettySize=auto;html=1;fontColor=#000000;" parent="1" source="Hkld1g8VxO6-5qJbLP5S-30" target="Hkld1g8VxO6-5qJbLP5S-32" edge="1">
          <mxGeometry relative="1" as="geometry">
            <Array as="points">
              <mxPoint x="664" y="629" />
            </Array>
          </mxGeometry>
        </mxCell>
        <mxCell id="Hkld1g8VxO6-5qJbLP5S-29" value="response JavaScript" style="edgeLabel;html=1;align=center;verticalAlign=middle;resizable=0;points=[];fontColor=#000000;" parent="Hkld1g8VxO6-5qJbLP5S-28" vertex="1" connectable="0">
          <mxGeometry x="0.3386" y="3" relative="1" as="geometry">
            <mxPoint x="10" y="-3" as="offset" />
          </mxGeometry>
        </mxCell>
        <mxCell id="Hkld1g8VxO6-5qJbLP5S-30" value="" style="points=[];aspect=fixed;html=1;align=center;shadow=0;dashed=0;image;image=img/lib/allied_telesis/computer_and_terminals/Server_Desktop.svg;labelBackgroundColor=#ffffff;fontColor=#000000;" parent="1" vertex="1">
          <mxGeometry x="640" y="519" width="47.33" height="60" as="geometry" />
        </mxCell>
        <mxCell id="Hkld1g8VxO6-5qJbLP5S-31" value="" style="shape=image;html=1;verticalAlign=top;verticalLabelPosition=bottom;labelBackgroundColor=#ffffff;imageAspect=0;aspect=fixed;image=https://cdn1.iconfinder.com/data/icons/logotypes/32/chrome-128.png;fontColor=#000000;align=left;" parent="1" vertex="1">
          <mxGeometry x="390" y="599" width="20" height="20" as="geometry" />
        </mxCell>
        <mxCell id="Hkld1g8VxO6-5qJbLP5S-32" value="" style="pointerEvents=1;shadow=0;dashed=0;html=1;strokeColor=none;fillColor=#434445;aspect=fixed;labelPosition=center;verticalLabelPosition=bottom;verticalAlign=top;align=center;outlineConnect=0;shape=mxgraph.vvd.web_browser;labelBackgroundColor=#ffffff;fontColor=#000000;" parent="1" vertex="1">
          <mxGeometry x="420" y="579" width="84.51" height="60" as="geometry" />
        </mxCell>
        <mxCell id="Hkld1g8VxO6-5qJbLP5S-36" value="Request &amp;amp; Response" style="text;html=1;align=center;verticalAlign=middle;resizable=0;points=[];autosize=1;strokeColor=none;fontColor=#000000;fontSize=20;fontStyle=1" parent="1" vertex="1">
          <mxGeometry x="475" y="210" width="220" height="30" as="geometry" />
        </mxCell>
        <mxCell id="Hkld1g8VxO6-5qJbLP5S-37" value="&lt;font style=&quot;font-size: 12px&quot;&gt;&lt;b&gt;Server 1&lt;/b&gt;&lt;br&gt;https://www.example.com&lt;/font&gt;" style="text;html=1;align=left;verticalAlign=middle;resizable=0;points=[];autosize=1;strokeColor=none;fontSize=12;fontColor=#000000;" parent="1" vertex="1">
          <mxGeometry x="700" y="284" width="150" height="30" as="geometry" />
        </mxCell>
        <mxCell id="Hkld1g8VxO6-5qJbLP5S-40" value="&lt;font style=&quot;font-size: 12px&quot;&gt;&lt;b&gt;Server 2&lt;/b&gt;&lt;br&gt;https://semantic-ui.com&lt;/font&gt;" style="text;html=1;align=left;verticalAlign=middle;resizable=0;points=[];autosize=1;strokeColor=none;fontSize=12;fontColor=#000000;" parent="1" vertex="1">
          <mxGeometry x="700" y="414" width="140" height="30" as="geometry" />
        </mxCell>
        <mxCell id="Hkld1g8VxO6-5qJbLP5S-41" value="&lt;font style=&quot;font-size: 12px&quot;&gt;&lt;b&gt;Server 3&lt;/b&gt;&lt;br&gt;https://jquery.com&lt;/font&gt;" style="text;html=1;align=left;verticalAlign=middle;resizable=0;points=[];autosize=1;strokeColor=none;fontSize=12;fontColor=#000000;" parent="1" vertex="1">
          <mxGeometry x="700" y="534" width="110" height="30" as="geometry" />
        </mxCell>
        <mxCell id="Hkld1g8VxO6-5qJbLP5S-42" value="Browser" style="text;html=1;align=center;verticalAlign=middle;resizable=0;points=[];autosize=1;strokeColor=none;fontSize=12;fontColor=#000000;fontStyle=1" parent="1" vertex="1">
          <mxGeometry x="320" y="289" width="60" height="20" as="geometry" />
        </mxCell>
      </root>
    </mxGraphModel>
  </diagram>
</mxfile>
